<?xml version="1.0" standalone="no"?>
<!DOCTYPE svg PUBLIC "-//W3C//DTD SVG 20010904//EN"
 "http://www.w3.org/TR/2001/REC-SVG-20010904/DTD/svg10.dtd">
<svg version="1.0" xmlns="http://www.w3.org/2000/svg"
 width="1080.000000pt" height="1080.000000pt" viewBox="0 0 1080.000000 1080.000000"
 preserveAspectRatio="xMidYMid meet">

<g transform="translate(0.000000,1080.000000) scale(0.100000,-0.100000)"
fill="#000000" stroke="none">
<path d="M3835 10779 c-33 -11 -69 -22 -80 -24 -11 -3 -65 -18 -120 -35 -569
-174 -1134 -460 -1615 -816 -134 -100 -180 -143 -180 -169 0 -9 -4 -14 -9 -11
-11 7 -8 -21 4 -31 4 -5 5 -1 0 7 -5 9 -4 12 1 7 4 -4 9 -22 10 -40 4 -99 16
-237 24 -267 19 -80 21 -146 6 -311 -18 -213 -27 -540 -27 -1009 0 -195 -4
-409 -10 -475 -5 -66 -14 -349 -19 -630 -5 -280 -11 -563 -14 -629 -2 -65 0
-148 4 -185 5 -36 5 -104 0 -151 -5 -47 -14 -182 -19 -300 -6 -118 -13 -231
-16 -250 -2 -19 -7 -96 -11 -170 -3 -74 -10 -157 -15 -184 -5 -27 -9 -73 -9
-102 0 -54 -29 -123 -53 -125 -7 -1 -43 -3 -82 -5 -92 -5 -206 -23 -220 -34
-5 -5 -32 -14 -58 -20 -49 -13 -55 -18 -35 -38 9 -9 9 -12 0 -12 -28 0 -9 -28
28 -40 51 -17 63 -51 29 -80 -13 -10 -30 -19 -36 -20 -7 0 -13 -4 -13 -8 0 -5
-15 -16 -33 -25 -17 -9 -41 -23 -52 -29 -87 -56 -131 -84 -140 -88 -41 -20
-105 -63 -105 -70 0 -7 -64 -35 -65 -28 -1 2 -15 -12 -33 -30 -17 -17 -39 -32
-49 -32 -18 0 -53 -32 -53 -48 0 -10 -81 -92 -91 -92 -5 0 -9 98 -9 218 0 577
-13 4057 -15 4060 -4 5 -99 -148 -180 -288 -158 -278 -310 -614 -419 -928
l-56 -163 0 -1644 0 -1643 56 -164 c150 -437 357 -857 609 -1238 216 -326 453
-617 707 -866 l143 -141 69 -6 c38 -4 107 -13 155 -22 47 -8 112 -20 145 -26
69 -12 104 -32 112 -64 3 -13 14 -25 23 -28 23 -6 34 -53 36 -140 0 -48 5 -71
15 -77 11 -7 8 -10 -15 -11 l-30 -1 30 -13 30 -14 -35 -2 c-23 -1 -28 -3 -13
-6 13 -3 20 -10 17 -17 -3 -8 2 -16 11 -20 9 -3 13 -2 10 3 -3 5 -1 13 5 16 6
4 9 3 8 -2 -6 -22 33 -58 154 -140 530 -357 1139 -622 1778 -774 l165 -39
1048 0 c1122 0 1088 -2 1021 47 -18 13 -27 31 -31 61 -3 23 -9 42 -12 42 -4 0
-17 24 -30 54 -12 30 -29 57 -37 60 -8 3 -14 10 -14 16 0 6 5 8 10 5 6 -3 10
1 10 9 0 9 -4 16 -9 16 -4 0 -20 38 -35 85 -15 47 -31 83 -37 80 -5 -3 -6 1
-3 9 4 9 1 16 -6 16 -7 0 -10 7 -6 16 4 9 2 22 -3 28 -14 17 -51 145 -51 177
0 16 -4 29 -10 29 -5 0 -10 9 -10 20 0 11 -4 20 -9 20 -5 0 -8 26 -7 58 3 62
25 102 58 102 10 0 18 5 18 11 0 5 4 8 9 4 5 -3 12 -1 15 4 4 5 36 19 74 31
90 28 152 54 152 62 0 5 81 37 110 43 40 9 90 27 90 33 0 4 8 9 18 10 9 1 46
9 82 17 36 9 94 20 130 25 36 5 85 13 109 18 24 6 49 8 57 5 7 -3 28 2 45 11
18 9 40 16 50 16 10 0 40 8 66 19 66 26 199 47 215 34 19 -15 128 -27 128 -14
0 12 24 26 61 34 23 6 30 0 60 -43 19 -28 42 -50 52 -50 14 0 17 -9 17 -54 0
-35 -5 -58 -15 -66 -8 -7 -15 -16 -15 -21 0 -17 25 -9 38 11 16 27 26 25 57
-7 29 -32 31 -46 10 -63 -18 -15 -3 -40 24 -40 16 -1 51 -23 51 -33 0 -2 -11
-8 -25 -11 -14 -4 -23 -10 -21 -15 6 -10 59 -22 94 -21 18 0 22 -4 17 -19 -4
-14 5 -28 32 -51 24 -20 33 -34 26 -37 -15 -5 -18 -33 -4 -33 6 0 13 -21 17
-47 9 -65 21 -86 46 -80 14 4 18 2 14 -9 -3 -8 -2 -12 3 -9 5 3 13 0 17 -6 3
-6 1 -15 -6 -19 -8 -5 -4 -8 13 -7 14 1 23 6 19 11 -3 5 2 6 12 3 10 -4 19 -1
22 8 4 8 10 13 14 10 15 -9 306 168 461 282 77 56 120 100 86 88 -17 -7 -34 7
-39 30 -2 17 3 21 34 23 30 3 39 9 52 36 8 17 25 41 36 51 12 11 30 39 41 63
11 24 27 46 35 49 11 4 14 14 10 34 -8 41 4 91 20 85 10 -4 12 2 7 24 -3 19
-1 30 6 30 7 0 11 20 11 53 0 29 4 57 9 63 11 10 34 197 33 261 -1 36 4 46 27
62 16 11 31 18 35 16 3 -3 4 -2 1 1 -6 10 15 27 70 59 28 16 61 37 75 48 14
10 39 25 55 33 17 8 39 20 50 27 11 6 49 30 85 51 56 34 132 82 270 171 19 13
56 34 81 48 25 13 79 45 120 70 119 72 145 85 177 90 17 3 36 8 41 12 10 5 16
-14 12 -38 0 -4 5 -7 11 -7 9 0 8 -4 -2 -11 -13 -9 -13 -10 0 -7 31 8 208 302
338 563 201 403 371 898 461 1340 70 348 65 266 69 1075 3 796 4 783 -54 1085
-157 817 -491 1580 -982 2245 -734 992 -1766 1709 -2944 2045 l-122 35 -1401
-1 c-1359 -1 -1402 -1 -1460 -20z m1495 -794 c36 -4 81 -10 101 -14 20 -5 44
-4 53 1 10 5 32 4 58 -3 24 -7 63 -12 88 -12 35 1 52 -5 79 -28 26 -21 46 -29
76 -29 59 0 87 -10 80 -28 -6 -17 21 -52 41 -52 8 0 21 -14 30 -32 9 -18 27
-40 40 -50 12 -10 26 -27 29 -38 4 -11 13 -20 20 -20 23 0 83 -62 100 -102 8
-21 20 -38 26 -38 6 0 9 -6 6 -14 -6 -15 10 -33 46 -51 11 -5 23 -17 27 -25
46 -93 90 -196 90 -210 0 -6 5 -8 10 -5 6 3 10 -4 10 -18 0 -32 24 -90 45
-107 9 -7 25 -35 36 -61 12 -26 29 -55 38 -63 14 -13 16 -25 11 -61 -5 -32 -3
-48 7 -56 15 -13 18 -69 2 -69 -5 0 -7 -5 -4 -10 4 -6 10 -8 15 -5 16 10 4
-178 -14 -217 -19 -45 -39 -48 -86 -13 -46 34 -92 41 -143 22 -33 -13 -86 -16
-258 -15 -181 0 -221 -3 -245 -16 -49 -27 -57 -32 -109 -58 -27 -14 -65 -45
-82 -68 -18 -23 -33 -38 -34 -33 0 4 -7 -13 -15 -39 -9 -29 -23 -52 -37 -59
-12 -6 -32 -24 -45 -40 -24 -30 -56 -38 -66 -16 -3 6 -5 -13 -4 -43 1 -64 -7
-96 -33 -124 -11 -11 -19 -25 -20 -30 -3 -45 -4 -244 -1 -253 2 -7 10 -13 16
-13 7 0 20 -18 30 -39 9 -22 26 -43 36 -46 11 -4 20 -11 20 -16 0 -18 25 -8
57 23 29 28 35 30 58 20 16 -8 25 -20 25 -35 0 -13 13 -36 30 -52 28 -26 32
-27 56 -15 15 9 28 10 32 5 15 -20 71 -45 104 -45 18 0 49 -10 68 -21 44 -27
275 -56 309 -39 68 34 241 48 241 20 0 -14 55 -40 82 -39 l23 0 -23 10 c-13 5
-20 13 -17 19 3 5 -3 10 -15 10 -12 0 -18 5 -15 10 10 16 40 11 63 -10 12 -11
26 -20 31 -20 10 0 31 -31 31 -45 0 -3 -10 -3 -21 0 -14 5 -25 2 -30 -6 -12
-19 -11 -49 1 -49 6 0 10 7 10 15 0 8 9 15 20 15 14 0 20 -7 20 -23 0 -24 33
-61 72 -81 20 -10 23 -19 21 -60 -2 -29 1 -45 7 -41 6 3 10 1 10 -4 0 -6 6
-11 14 -11 24 0 46 -62 42 -120 -2 -28 -9 -57 -15 -63 -6 -6 -11 -19 -11 -29
0 -10 -6 -18 -12 -18 -7 0 -24 -25 -37 -55 -16 -39 -29 -55 -42 -55 -11 0 -19
6 -20 13 -1 17 -17 -24 -18 -46 -1 -15 4 -17 29 -12 29 6 42 -6 21 -20 -14 -8
-41 -65 -41 -85 0 -10 -7 -23 -15 -30 -9 -7 -13 -21 -9 -35 11 -42 -88 -113
-120 -86 -12 10 -96 3 -109 -9 -4 -4 -8 -35 -9 -69 -1 -55 2 -65 28 -91 20
-20 39 -30 60 -30 25 0 33 -5 38 -25 4 -14 4 -37 1 -52 l-6 -28 17 30 c22 40
21 39 37 24 9 -9 12 -21 7 -34 -10 -27 -6 -60 9 -79 10 -12 10 -20 -1 -39 -50
-90 -79 -156 -80 -179 -1 -24 -2 -25 -17 -10 -15 14 -16 14 -19 -11 -5 -43
-25 -30 -38 26 -1 4 -3 10 -4 15 -2 4 -3 15 -4 24 -1 10 -5 19 -11 20 -15 5
-55 -63 -55 -93 0 -16 -4 -29 -8 -29 -4 0 -14 -17 -21 -37 -8 -21 -17 -40 -21
-43 -4 -3 -25 -41 -47 -85 -64 -131 -95 -185 -104 -185 -5 0 -9 -6 -9 -14 0
-8 -13 -24 -30 -37 -16 -13 -30 -29 -30 -35 0 -11 -97 -107 -103 -102 -2 2
-11 -3 -19 -9 -8 -7 -18 -10 -21 -7 -7 8 3 65 14 79 4 6 18 37 30 70 12 32 34
80 48 105 46 81 64 120 59 126 -4 3 -19 -11 -35 -32 -15 -20 -56 -70 -90 -110
-35 -40 -63 -80 -63 -89 0 -8 -9 -23 -20 -32 -11 -10 -20 -22 -20 -29 0 -6 -9
-19 -21 -30 -12 -10 -33 -41 -46 -69 -33 -65 -75 -118 -105 -132 -12 -6 -42
-19 -65 -29 -76 -34 -57 -57 77 -97 142 -42 135 -42 169 0 17 21 39 54 49 73
10 19 29 53 43 75 13 22 33 57 44 79 21 40 85 116 99 116 5 0 56 50 115 110
59 61 112 110 117 110 6 0 19 9 29 20 10 11 22 20 26 20 5 0 25 11 45 25 42
28 89 33 98 9 10 -25 7 -72 -5 -79 -6 -4 -9 -31 -8 -63 2 -46 0 -57 -15 -62
-16 -5 -16 -7 -2 -19 19 -16 21 -60 4 -65 -48 -14 -47 -14 -36 -44 9 -22 9
-48 0 -98 -7 -38 -19 -109 -28 -159 -9 -49 -24 -116 -35 -148 l-19 -57 22 -53
c33 -74 32 -162 -1 -200 -14 -15 -30 -27 -37 -27 -6 0 -19 -12 -29 -26 -13
-21 -22 -25 -44 -21 -16 3 -33 1 -39 -5 -13 -13 -46 38 -87 132 -27 62 -61
104 -76 94 -4 -2 -1 -17 6 -32 23 -48 24 -142 0 -142 -8 0 -15 -2 -15 -4 0 -2
-3 -12 -7 -21 -5 -14 -2 -16 15 -11 31 10 44 -20 30 -70 -15 -54 -12 -174 4
-174 4 0 2 -14 -3 -32 -5 -17 -7 -34 -4 -36 3 -3 0 -11 -5 -17 -6 -7 -12 -44
-15 -84 -2 -39 -7 -76 -10 -82 -4 -5 1 -19 10 -29 9 -10 14 -23 11 -29 -4 -5
-2 -12 4 -16 19 -12 11 -35 -12 -32 -17 1 -24 -4 -26 -21 -2 -13 -8 -22 -14
-20 -6 2 -22 -6 -34 -19 -20 -20 -22 -27 -11 -43 6 -11 16 -20 22 -20 5 0 2
-5 -8 -11 -17 -10 -16 -12 7 -34 31 -29 25 -51 -15 -59 -36 -7 -37 -19 -4 -48
26 -23 35 -84 15 -104 -13 -13 11 -79 38 -105 12 -11 22 -30 22 -42 0 -18 -2
-19 -10 -7 -8 13 -10 13 -10 -2 0 -9 6 -21 13 -25 16 -10 41 -86 35 -104 -3
-8 6 -31 19 -51 12 -21 23 -48 23 -60 0 -13 7 -32 15 -42 8 -11 15 -27 15 -36
0 -9 9 -25 19 -34 12 -11 21 -38 26 -71 3 -30 11 -57 16 -60 5 -4 9 -14 9 -23
1 -9 9 -35 20 -57 11 -22 19 -46 20 -52 0 -7 9 -22 19 -32 35 -35 121 -151
133 -178 7 -16 20 -37 30 -49 10 -11 22 -41 27 -68 5 -26 10 -48 12 -50 2 -2
24 -1 49 3 34 5 48 3 57 -9 10 -13 14 -11 31 10 17 22 22 23 49 11 37 -15 55
-50 46 -91 -4 -23 -9 -28 -18 -20 -10 8 -16 7 -22 -4 -4 -8 -21 -16 -38 -18
-29 -3 -30 -5 -27 -48 1 -25 4 -56 7 -68 4 -15 2 -21 -4 -17 -12 7 -30 -10
-82 -75 -56 -70 -72 -105 -57 -130 7 -11 21 -20 31 -20 14 0 11 -7 -15 -34
-37 -38 -55 -43 -50 -13 6 35 -7 67 -29 67 -29 0 -34 -26 -10 -56 26 -33 26
-44 2 -44 -12 0 -20 -9 -24 -29 -3 -16 -13 -36 -22 -44 -8 -9 -15 -22 -15 -29
0 -8 -10 -24 -21 -37 l-21 -23 -13 24 c-6 13 -8 28 -3 34 16 22 -5 22 -41 1
-20 -12 -46 -27 -56 -33 -11 -6 -20 -17 -20 -25 -2 -36 -18 -69 -35 -69 -9 0
-25 -9 -35 -20 -19 -21 -45 -27 -45 -11 0 5 7 17 16 25 14 15 14 16 -2 16 -10
0 -25 -7 -34 -15 -9 -8 -29 -16 -44 -17 -26 -2 -27 -5 -21 -38 4 -19 13 -42
21 -52 11 -11 12 -18 4 -23 -6 -4 -12 -5 -14 -4 -30 41 -44 68 -39 73 13 13
-38 5 -72 -11 -56 -27 -102 -10 -142 52 -120 184 -213 295 -251 295 -19 0
-240 241 -277 302 -36 60 -75 162 -75 194 0 10 -4 31 -9 48 -5 17 -16 56 -25
86 -31 108 -68 225 -81 255 -108 242 -135 390 -141 764 -2 140 -7 257 -12 260
-5 3 -13 17 -17 31 -4 14 -20 39 -35 55 -15 17 -32 39 -37 49 -10 19 -11 19
-17 0 -10 -31 -71 -48 -166 -47 l-85 1 -19 -44 c-22 -54 -134 -172 -198 -209
-34 -19 -48 -33 -48 -48 0 -75 -45 -142 -133 -200 -75 -50 -119 -62 -154 -44
-79 41 -106 102 -74 163 12 21 21 46 20 54 0 10 -2 11 -6 3 -12 -32 -129 -6
-168 37 -25 27 -25 123 0 150 8 9 15 21 15 26 0 4 26 33 58 64 31 30 66 73 77
95 11 22 23 42 26 45 16 14 69 95 69 107 0 7 -10 13 -22 13 -13 0 -32 7 -42
15 -10 8 -23 12 -28 9 -10 -6 -47 32 -49 50 -10 76 -7 85 44 128 27 24 75 58
105 76 30 18 65 45 76 60 41 52 192 192 208 192 4 0 8 9 8 20 0 13 5 18 15 14
8 -4 17 1 21 9 3 10 -14 35 -49 70 -54 55 -58 64 -82 180 -6 29 21 18 41 -18
6 -11 19 -22 29 -23 14 -3 17 1 12 25 -3 15 -8 38 -12 51 -7 22 -6 22 36 16
41 -6 119 -43 92 -44 -7 0 -13 -6 -13 -14 0 -8 8 -12 23 -9 17 3 26 -2 34 -20
10 -22 17 -25 51 -21 64 6 152 50 152 75 0 6 -22 20 -49 32 -26 13 -60 36 -75
52 -15 17 -58 63 -94 104 -72 80 -112 120 -266 267 -54 52 -102 94 -107 94 -5
0 -9 -9 -9 -20 0 -72 -162 78 -273 253 -21 31 -37 60 -37 63 0 3 -10 20 -22
37 -62 86 -134 226 -178 342 -12 33 -26 69 -30 80 -5 11 -12 38 -15 60 -4 22
-11 45 -16 51 -5 7 -9 16 -8 20 2 5 -1 38 -5 74 -12 108 -15 155 -22 406 -6
213 -5 249 11 310 25 98 43 153 65 201 11 24 20 47 20 51 0 5 16 38 35 73 34
62 78 152 95 194 4 11 20 27 34 35 24 12 33 12 79 -3 29 -9 61 -16 72 -15 16
3 19 -2 17 -24 -3 -24 0 -27 30 -30 18 -2 32 -8 31 -14 -1 -7 20 -14 49 -17
28 -4 60 -15 72 -25 26 -23 96 -48 156 -56 25 -3 65 -9 90 -14 59 -10 159 1
199 21 18 9 38 14 46 11 7 -3 16 0 21 7 5 8 3 10 -6 4 -8 -5 -11 -4 -7 2 4 6
18 8 32 5 15 -2 25 0 25 7 0 6 6 11 14 11 16 0 46 27 46 41 0 5 -10 14 -22 20
-23 9 -23 10 -1 5 19 -3 21 -1 12 21 -13 34 -12 36 16 29 15 -4 25 -2 25 5 0
6 10 19 22 29 20 16 21 21 10 44 -13 29 -2 66 20 66 26 0 58 44 58 79 -1 31
-7 40 -41 64 -23 16 -43 37 -46 47 -7 26 -26 28 -272 29 -221 2 -344 -12 -403
-44 -15 -9 -49 -14 -81 -14 -64 2 -72 -2 -93 -43 -9 -17 -25 -40 -35 -52 -14
-14 -18 -29 -14 -48 4 -15 1 -36 -5 -47 -7 -15 -8 -27 0 -40 8 -17 6 -20 -20
-26 -17 -4 -44 -4 -61 0 -37 8 -36 34 4 53 23 11 25 16 17 33 -6 10 -10 25 -9
32 1 6 -1 25 -6 41 -5 19 -4 31 5 36 9 6 11 24 6 69 -5 44 -3 68 8 89 9 18 13
43 9 70 -5 38 -2 45 31 78 20 20 36 41 35 48 -4 31 4 43 41 60 22 11 40 23 40
28 0 4 9 8 21 8 11 0 36 12 54 26 19 14 39 23 44 20 5 -4 12 -2 16 4 3 5 17
10 29 10 13 0 29 6 35 14 19 23 48 25 71 4 13 -12 28 -17 40 -13 11 4 20 2 20
-3 0 -5 21 -17 47 -27 25 -10 61 -28 78 -40 18 -11 59 -34 91 -49 32 -16 67
-32 76 -37 10 -5 24 -9 31 -9 7 0 24 -8 37 -17 14 -10 33 -16 42 -15 10 2 32
-3 50 -12 42 -18 100 -28 114 -18 21 14 25 61 8 87 -8 13 -13 29 -10 34 4 6
-6 18 -21 28 -15 10 -32 23 -36 30 -4 7 -15 13 -22 13 -8 0 -15 5 -15 10 0 6
-5 10 -10 10 -6 0 -49 15 -98 34 -77 30 -232 62 -177 37 12 -6 14 -10 6 -10
-7 -1 -30 9 -50 22 -43 26 -119 48 -127 35 -3 -5 -14 -6 -25 -3 -10 4 -37 6
-59 7 -22 0 -43 4 -46 9 -3 5 -19 9 -36 9 -23 0 -29 -4 -24 -15 3 -10 -1 -18
-12 -21 -9 -4 -31 -12 -49 -20 -17 -8 -34 -14 -38 -14 -4 0 -21 -13 -38 -29
-78 -73 -112 -99 -115 -91 -2 5 1 18 7 29 6 11 11 29 11 40 0 12 4 29 9 39 20
38 41 91 41 104 0 8 4 18 9 24 5 5 12 26 15 47 3 21 13 51 21 67 8 16 15 39
15 52 0 13 6 35 14 50 8 15 17 40 21 57 3 16 13 35 21 42 8 6 14 18 14 27 0 8
34 83 75 167 61 123 88 165 140 220 35 38 82 89 105 114 48 53 88 81 104 75 6
-2 29 12 51 32 22 20 65 52 95 72 30 19 59 41 63 49 4 7 22 13 39 13 22 0 29
4 25 15 -5 10 4 16 31 20 20 4 44 9 52 13 8 3 20 6 27 7 6 0 20 8 31 18 25 23
118 45 214 51 87 6 175 24 184 38 4 5 24 7 48 4 22 -3 70 -8 106 -11z m-1180
-1365 c0 -5 -9 -10 -19 -10 -11 0 -23 5 -26 10 -4 6 5 10 19 10 14 0 26 -4 26
-10z m2116 -209 c5 -5 32 -11 59 -13 51 -3 129 -45 145 -78 4 -8 20 -38 34
-66 29 -57 34 -94 12 -94 -7 0 -16 -9 -19 -19 -5 -21 -26 -22 -50 -2 -13 10
-19 9 -36 -8 -12 -12 -28 -21 -36 -21 -9 0 -23 -17 -32 -37 -10 -21 -18 -39
-19 -41 -1 -2 -53 12 -116 30 -107 31 -121 33 -275 33 -116 0 -166 -4 -175
-12 -6 -7 -19 -13 -27 -13 -9 0 -42 -17 -73 -38 -52 -35 -57 -40 -45 -57 13
-17 15 -17 40 0 15 9 27 14 27 9 0 -4 5 -3 12 4 7 7 20 12 30 12 10 0 27 8 38
18 35 29 110 46 212 47 84 0 100 -3 125 -22 15 -11 27 -26 26 -32 -2 -6 1 -11
7 -11 5 0 9 -11 8 -25 -2 -23 -6 -25 -53 -25 -27 0 -98 -2 -157 -3 -91 -2
-107 0 -105 13 1 11 -7 15 -30 15 -47 1 -73 -12 -73 -35 0 -15 -7 -20 -26 -20
-14 0 -23 -4 -19 -10 3 -6 0 -16 -7 -23 -31 -29 -88 -67 -100 -67 -21 0 -45
49 -58 119 -10 55 -9 68 6 100 10 20 18 43 19 52 2 26 48 78 75 85 14 4 37 15
52 25 14 11 35 19 46 19 12 0 24 5 27 10 3 6 15 10 25 10 10 0 31 7 47 15 15
7 51 25 80 38 29 14 59 32 68 41 9 9 26 16 38 16 12 0 46 11 75 25 30 14 66
25 80 26 15 0 36 4 47 9 27 12 59 12 71 1z m-1968 -283 c33 -17 28 -45 -10
-57 -18 -5 -79 -12 -135 -14 -82 -4 -103 -2 -107 10 -10 25 23 45 107 63 83
18 104 18 145 -2z m-48 -158 c9 -16 8 -22 -5 -26 -21 -8 -39 10 -32 30 9 22
24 20 37 -4z m22 -104 c19 -8 44 -13 55 -10 11 3 25 -2 34 -12 13 -16 12 -17
-5 -11 -10 4 -25 2 -32 -4 -10 -8 -14 -8 -14 0 0 6 -5 11 -11 11 -5 0 -8 -4
-5 -8 9 -14 -33 -42 -62 -42 -28 0 -86 50 -59 50 6 0 23 9 37 20 30 24 21 23
62 6z m1736 -3 c-5 -26 -38 -29 -38 -4 0 15 6 21 21 21 14 0 19 -5 17 -17z
m-134 -43 c5 -32 11 -40 29 -42 34 -2 40 -1 63 6 24 7 67 -27 76 -62 7 -24 1
-27 -22 -12 -9 6 -17 5 -21 -2 -4 -7 -14 -8 -25 -3 -11 5 -24 7 -31 6 -6 -1
-34 8 -62 19 -29 11 -61 20 -71 20 -22 0 -28 34 -9 46 15 9 -9 24 -38 24 -13
0 -23 5 -23 11 0 5 3 8 8 6 4 -3 21 1 37 8 17 7 42 14 56 14 23 1 27 -4 33
-39z m-1885 -1 c53 -17 135 -52 146 -62 14 -13 -140 0 -168 14 -80 42 -64 75
22 48z m1683 -59 c14 0 28 6 31 13 3 9 7 9 20 -2 21 -17 22 -35 1 -27 -27 10
-10 -17 22 -34 16 -9 66 -31 111 -50 46 -19 83 -38 83 -43 0 -10 -48 2 -92 24
-21 11 -51 19 -67 19 -16 0 -32 4 -35 9 -3 5 -30 12 -59 15 -64 8 -107 42
-107 85 0 40 9 43 38 15 15 -13 39 -24 54 -24z m-1454 3 c-10 -2 -28 -2 -40 0
-13 2 -5 4 17 4 22 1 32 -1 23 -4z m1867 -23 c3 -5 1 -10 -4 -10 -6 0 -11 5
-11 10 0 6 2 10 4 10 3 0 8 -4 11 -10z m-240 -20 c3 -5 1 -10 -4 -10 -6 0 -11
5 -11 10 0 6 2 10 4 10 3 0 8 -4 11 -10z m-1580 -10 c-3 -5 -34 -9 -68 -9 -50
1 -56 3 -32 9 46 12 107 12 100 0z m1735 -60 c21 -6 22 -8 8 -15 -10 -4 -26 0
-40 9 -24 17 -11 20 32 6z m240 -10 c0 -3 -37 -6 -82 -6 -69 -1 -74 0 -33 6
64 8 115 8 115 0z m704 -1235 c21 -21 2 -65 -28 -65 -19 1 -20 2 -4 13 11 9
14 18 7 28 -21 34 -3 52 25 24z m-624 -395 c0 -5 -4 -10 -10 -10 -5 0 -10 5
-10 10 0 6 5 10 10 10 6 0 10 -4 10 -10z m-2209 -847 c13 -16 12 -17 -3 -4
-17 13 -22 21 -14 21 2 0 10 -8 17 -17z m-11 -102 c0 -14 -27 -14 -35 -1 -4 6
-4 18 -1 26 5 14 8 14 21 0 8 -8 15 -19 15 -25z m2240 -441 c0 -5 -4 -10 -10
-10 -5 0 -10 5 -10 10 0 6 5 10 10 10 6 0 10 -4 10 -10z m0 -34 c0 -3 -4 -8
-10 -11 -5 -3 -10 -1 -10 4 0 6 5 11 10 11 6 0 10 -2 10 -4z m-310 -588 c-1
-28 -25 -63 -35 -49 -3 6 -1 20 5 31 6 11 8 20 5 20 -4 0 -3 5 0 10 11 18 25
11 25 -12z m500 -1263 c0 -8 -4 -15 -10 -15 -5 0 -10 -4 -10 -10 0 -5 17 -9
38 -7 32 2 37 -1 40 -22 6 -36 -11 -44 -51 -25 -41 20 -53 44 -37 74 13 23 30
27 30 5z m816 -507 c3 -13 15 -35 26 -50 13 -19 16 -33 10 -43 -7 -13 -10 -14
-19 -3 -5 7 -13 22 -16 33 -3 11 -10 35 -15 53 -6 17 -7 32 -2 32 5 0 12 -10
16 -22z m-646 -171 c0 -11 9 -21 20 -24 15 -4 18 -9 10 -18 -10 -12 -5 -39 12
-62 6 -8 19 -8 44 -1 40 11 39 11 48 -19 5 -15 1 -28 -14 -43 -12 -12 -19 -28
-16 -36 3 -8 0 -14 -6 -14 -7 0 -23 -11 -38 -25 -29 -28 -40 -24 -65 24 -26
52 -36 92 -22 90 28 -3 47 2 47 12 0 7 -18 47 -40 90 -22 43 -40 90 -40 103 0
14 -5 28 -10 31 -6 4 -7 11 -4 17 8 13 74 -99 74 -125z m-83 41 c-3 -8 -6 -5
-6 6 -1 11 2 17 5 13 3 -3 4 -12 1 -19z m-10 -153 c-23 -21 -27 -31 -22 -54 3
-16 13 -32 21 -35 8 -3 19 -16 24 -28 6 -13 28 -50 50 -83 21 -33 49 -79 61
-102 13 -24 26 -43 30 -43 4 0 16 -20 28 -44 11 -25 25 -47 30 -50 6 -4 6 -17
-1 -36 -14 -41 -5 -70 37 -113 38 -39 44 -57 20 -57 -8 0 -15 6 -15 13 0 8 -9
22 -20 32 -11 10 -20 22 -20 27 0 5 -12 20 -26 33 -22 20 -33 23 -72 19 l-47
-5 -85 136 c-47 75 -89 143 -95 153 -30 51 -58 82 -76 82 -28 0 -24 13 22 59
49 49 66 51 80 11 6 -16 14 -30 18 -30 3 0 12 -13 19 -28 6 -16 20 -37 30 -48
9 -10 33 -44 52 -74 19 -30 38 -56 42 -58 5 -2 8 -8 8 -13 0 -12 47 -86 74
-117 14 -16 22 -19 27 -10 10 16 -11 54 -87 159 -35 49 -64 91 -64 95 0 3 -28
41 -61 86 l-62 81 39 33 c21 18 46 33 54 33 10 0 5 -8 -13 -24z m-1012 -176
c-8 -12 -35 -12 -35 0 0 11 22 20 33 14 4 -2 5 -9 2 -14z m864 -203 c119 -186
145 -239 125 -259 -9 -8 -95 82 -114 119 -8 16 -26 47 -40 69 -14 22 -31 49
-37 60 -7 11 -24 40 -37 65 -13 25 -33 56 -45 69 -12 13 -21 31 -21 41 0 16
18 40 31 40 4 0 66 -92 138 -204z m-1064 164 c3 -5 1 -10 -4 -10 -6 0 -11 5
-11 10 0 6 2 10 4 10 3 0 8 -4 11 -10z m1595 -157 c22 -25 20 -28 -8 -14 -9 5
-34 16 -54 25 -21 8 -38 20 -38 26 0 5 -5 10 -10 10 -6 0 -20 8 -31 19 -17 16
-18 19 -4 31 8 7 15 19 15 27 0 12 46 -32 130 -124z m-1575 97 c-3 -5 -12 -7
-20 -3 -21 7 -19 13 6 13 11 0 18 -4 14 -10z m-11 -51 c-3 -5 -10 -7 -15 -3
-5 3 -7 10 -3 15 3 5 10 7 15 3 5 -3 7 -10 3 -15z m717 -1 c10 -13 18 -27 19
-31 0 -4 5 -13 11 -20 5 -7 38 -55 71 -107 34 -52 79 -121 100 -154 34 -53 40
-76 19 -76 -4 0 -29 34 -56 75 -26 41 -51 75 -55 75 -4 0 -10 8 -13 18 -3 9
-19 40 -36 67 -38 64 -91 163 -91 170 0 11 13 4 31 -17z m-601 -27 c0 -12 -20
-25 -27 -18 -7 7 6 27 18 27 5 0 9 -4 9 -9z m510 -11 c0 -5 -5 -10 -11 -10 -5
0 -7 5 -4 10 3 6 8 10 11 10 2 0 4 -4 4 -10z m-622 -30 c1 -16 2 -45 2 -62 2
-149 2 -148 -14 -142 -10 4 -16 19 -17 38 -2 63 -8 122 -15 150 -5 19 -2 31 7
37 24 15 34 10 37 -21z m158 -15 c-4 -14 -2 -25 4 -25 5 0 10 -8 10 -17 0 -13
-6 -9 -20 12 -24 36 -25 55 -4 55 12 0 15 -6 10 -25z m360 -17 c16 -24 37 -59
46 -78 10 -19 27 -48 38 -65 11 -16 24 -39 30 -50 5 -11 30 -51 55 -90 43 -68
54 -95 37 -95 -13 0 -36 29 -73 93 -19 33 -41 71 -50 85 -9 15 -27 47 -41 72
-13 25 -39 70 -56 101 -26 46 -31 69 -17 69 1 0 15 -19 31 -42z m994 32 c0 -5
-5 -10 -11 -10 -7 0 -18 -8 -25 -17 -7 -10 -15 -15 -18 -12 -7 7 31 49 44 49
6 0 10 -4 10 -10z m-1629 -55 c1 -16 -5 -46 -13 -65 l-15 -35 -13 27 c-10 22
-11 30 0 43 10 12 10 15 -4 15 -22 0 -20 19 6 47 25 26 34 19 39 -32z m48 -38
c6 -26 9 -52 6 -58 -11 -17 -25 -9 -25 16 0 13 -5 35 -11 49 -12 26 -4 66 10
50 5 -5 14 -31 20 -57z m491 43 c0 -5 -7 -10 -15 -10 -8 0 -15 5 -15 10 0 6 7
10 15 10 8 0 15 -4 15 -10z m1207 -22 c-3 -8 -6 -5 -6 6 -1 11 2 17 5 13 3 -3
4 -12 1 -19z m-1732 -147 c-3 -2 -5 3 -5 13 0 9 -4 14 -10 11 -6 -4 -10 6 -10
23 0 46 14 47 22 1 4 -24 5 -45 3 -48z m1417 -5 c30 -47 31 -49 13 -62 -26
-19 -35 -18 -35 5 0 26 -28 91 -40 91 -6 0 -10 4 -10 10 0 26 43 -1 72 -44z
m-919 -17 c10 -18 16 -34 14 -36 -3 -2 -14 12 -25 32 -12 19 -18 35 -14 35 4
0 15 -14 25 -31z m-487 -2 c5 -15 64 -11 64 4 0 5 7 9 15 9 8 0 15 -7 15 -15
0 -8 -7 -15 -16 -15 -13 0 -15 -13 -12 -82 2 -67 0 -83 -12 -85 -35 -7 -44 21
-50 150 0 4 -6 6 -12 5 -7 -2 -14 7 -16 20 -4 24 15 31 24 9z m521 -69 c-3 -8
-6 -5 -6 6 -1 11 2 17 5 13 3 -3 4 -12 1 -19z m630 5 c22 -29 44 -73 36 -73
-8 0 -63 74 -63 84 0 11 13 6 27 -11z m-587 -53 c6 -11 7 -20 3 -20 -5 0 -14
9 -21 20 -7 11 -8 20 -2 20 5 0 14 -9 20 -20z m38 -57 c18 -40 15 -49 -8 -20
-20 26 -26 47 -12 47 4 0 13 -12 20 -27z m-517 -43 c22 -13 24 -29 5 -55 -8
-12 -19 -16 -31 -11 -17 6 -17 7 0 20 19 14 14 53 -5 41 -5 -3 -10 -1 -10 4 0
14 16 14 41 1z m659 -46 c0 -8 -4 -12 -10 -9 -5 3 -10 13 -10 21 0 8 5 12 10
9 6 -3 10 -13 10 -21z m-596 -60 c9 -3 16 -12 16 -19 0 -10 -7 -10 -35 -1 -19
7 -38 15 -41 19 -9 9 39 9 60 1z m-31 -44 c-4 -16 0 -20 21 -20 30 0 34 -17 9
-36 -17 -12 -17 -13 -1 -14 26 0 32 -19 12 -41 -16 -18 -16 -19 4 -19 27 0 39
-20 18 -32 -22 -12 -20 -28 4 -28 23 0 27 -28 5 -36 -21 -8 -19 -21 4 -27 13
-3 22 -17 27 -43 6 -35 4 -40 -31 -70 -58 -49 -95 -26 -81 51 4 19 2 36 -4 40
-7 4 -6 13 1 27 9 17 8 23 -5 30 -22 13 -20 33 7 51 l22 16 -22 0 c-25 1 -33
31 -8 31 22 0 18 21 -5 27 -24 6 -26 19 -5 27 23 8 18 36 -6 36 -21 0 -21 0 2
25 29 30 39 32 32 5z m132 -27 c14 -15 25 -39 25 -52 0 -21 -3 -20 -26 15 -15
21 -31 45 -36 52 -21 25 11 12 37 -15z m-356 -234 c39 -74 98 -120 174 -134
35 -7 51 -24 25 -26 -96 -8 -177 41 -213 128 -14 33 -20 73 -11 73 2 0 14 -19
25 -41z"/>
<path d="M6020 9510 c0 -5 5 -10 10 -10 6 0 10 5 10 10 0 6 -4 10 -10 10 -5 0
-10 -4 -10 -10z"/>
<path d="M5390 7626 c-8 -11 -9 -20 -1 -33 10 -17 11 -16 17 5 3 12 14 22 23
22 14 0 14 2 1 10 -20 13 -26 12 -40 -4z"/>
<path d="M5460 7610 c0 -5 5 -10 10 -10 6 0 10 5 10 10 0 6 -4 10 -10 10 -5 0
-10 -4 -10 -10z"/>
<path d="M5306 7560 c-18 -106 -27 -193 -21 -208 18 -43 34 -132 35 -185 l0
-59 -62 -59 c-34 -32 -71 -59 -82 -59 -12 0 -32 -9 -46 -20 -14 -11 -29 -20
-34 -20 -6 0 -22 -12 -37 -26 -34 -33 -95 -42 -152 -22 -76 27 -122 39 -142
37 -34 -4 -56 1 -51 10 3 5 -27 8 -67 7 -65 -1 -75 -4 -99 -29 -27 -26 -27
-30 -14 -61 15 -37 72 -66 129 -66 18 0 38 -5 44 -11 6 -6 55 -10 115 -11 101
0 107 -1 139 -29 19 -16 39 -29 45 -29 6 0 26 -16 45 -35 19 -19 42 -35 53
-35 10 0 36 -17 57 -39 21 -21 41 -36 44 -33 3 3 13 -2 22 -10 33 -28 143 -77
189 -84 24 -3 47 -10 50 -15 3 -5 18 -9 34 -9 16 0 32 -5 35 -11 4 -6 13 -8
20 -5 16 6 30 -28 20 -44 -4 -7 -54 -10 -143 -7 -115 3 -143 0 -177 -15 -22
-10 -50 -18 -61 -18 -12 0 -27 -6 -33 -14 -6 -7 -29 -16 -51 -20 -22 -3 -40
-10 -40 -15 0 -12 -48 -31 -80 -31 -17 0 -30 5 -30 10 0 6 -8 10 -18 10 -10 0
-22 4 -28 9 -5 5 -41 18 -80 30 -63 19 -92 22 -256 20 l-186 -1 -66 32 c-48
24 -66 38 -66 53 0 16 -5 18 -27 13 -52 -12 -58 -12 -55 7 2 9 -1 25 -7 34 -8
15 -12 12 -29 -17 -14 -21 -18 -39 -13 -49 5 -9 9 -38 9 -64 0 -54 14 -77 46
-75 37 2 143 -60 156 -92 6 -15 22 -38 36 -51 13 -12 24 -29 24 -36 0 -8 7
-16 15 -19 8 -4 12 -10 9 -15 -7 -13 55 -106 98 -145 18 -17 50 -41 71 -54 33
-19 43 -21 80 -12 31 8 44 8 50 -1 5 -7 5 3 1 23 -5 30 -25 54 -45 55 -3 0
-27 21 -53 48 -26 26 -52 47 -57 47 -6 0 -7 9 -4 20 5 17 2 20 -22 20 -20 1
-36 11 -56 37 -15 20 -25 39 -21 42 3 3 8 0 12 -6 11 -18 67 -21 67 -3 0 10
-12 16 -32 18 -24 2 -33 9 -38 30 -4 15 -15 35 -26 45 -10 10 -19 29 -19 42 0
22 3 23 40 20 22 -2 45 -7 52 -12 7 -4 34 -8 60 -10 26 -1 57 -7 69 -14 21
-11 58 -18 209 -39 36 -4 87 -14 114 -20 37 -8 86 -8 188 1 77 6 154 8 171 5
20 -3 39 0 51 9 24 18 47 19 80 4 27 -13 29 -37 9 -89 -6 -14 -13 -37 -17 -52
-5 -24 -3 -28 16 -28 20 0 20 -2 -12 -35 -19 -19 -43 -35 -55 -35 -12 0 -27
-6 -33 -12 -10 -10 -17 -10 -32 0 -16 10 -22 8 -37 -11 -10 -13 -22 -24 -26
-25 -4 0 -19 -10 -34 -22 -14 -11 -31 -20 -38 -20 -7 0 -18 -7 -25 -15 -8 -9
-22 -12 -41 -8 -16 3 -35 0 -43 -6 -7 -6 -22 -8 -31 -4 -15 5 -17 2 -12 -16 4
-15 0 -24 -11 -28 -19 -8 20 -22 83 -30 22 -2 48 -12 58 -21 37 -33 224 -33
247 0 3 4 17 9 30 10 37 5 49 -40 24 -88 -10 -20 -25 -38 -31 -41 -23 -9 -14
-21 25 -30 66 -16 128 28 104 74 -5 10 -8 23 -7 28 2 6 8 37 15 70 17 85 49
164 71 176 11 5 19 19 19 29 0 11 5 20 10 20 6 0 10 6 10 13 0 7 14 29 31 50
17 21 29 40 26 43 -6 6 54 74 65 74 4 0 20 10 34 23 34 28 64 98 64 147 0 33
-4 40 -34 54 -38 18 -66 21 -66 7 0 -24 -35 -19 -66 9 -19 16 -40 30 -47 30
-8 0 -6 4 3 10 12 9 9 15 -20 39 l-35 30 2 91 c2 51 6 97 10 103 17 27 32 106
33 174 0 50 5 76 15 87 8 8 15 22 15 31 0 55 -74 144 -147 177 -32 14 -43 25
-43 42 0 16 -10 27 -41 40 -22 10 -47 19 -55 20 -22 3 -34 26 -34 63 0 18 -6
47 -14 65 -8 18 -18 50 -21 71 -4 27 -13 40 -29 47 -13 5 -26 15 -29 22 -2 7
-7 -3 -11 -22z m215 -340 c19 -16 40 -34 47 -40 6 -6 12 -24 12 -40 0 -16 5
-32 10 -35 13 -8 13 -33 0 -48 -6 -7 -16 -20 -23 -29 -9 -13 -21 -16 -54 -11
-26 3 -43 11 -43 19 0 7 -6 11 -14 8 -9 -4 -18 7 -27 33 -21 64 -28 123 -18
151 13 34 67 30 110 -8z m-621 -335 c0 -2 -6 -5 -13 -8 -8 -3 -14 1 -14 8 0 7
6 11 14 8 7 -3 13 -6 13 -8z m714 -490 c-4 -8 -8 -15 -10 -15 -2 0 -4 7 -4 15
0 8 4 15 10 15 5 0 7 -7 4 -15z"/>
<path d="M4416 7191 c-8 -13 -86 -52 -86 -44 0 4 -11 -9 -25 -29 -14 -20 -25
-41 -25 -47 0 -5 -13 -20 -29 -33 -16 -13 -46 -45 -67 -73 -20 -27 -43 -54
-51 -58 -18 -11 -17 -27 2 -27 19 0 9 -22 -29 -63 -14 -15 -26 -35 -26 -43 0
-23 -42 -74 -62 -74 -9 0 -31 -15 -48 -32 -16 -18 -42 -45 -57 -60 -25 -26
-26 -28 -12 -75 7 -26 12 -54 11 -60 -6 -26 57 -14 88 16 17 16 43 34 58 40
17 7 38 32 56 64 16 28 37 61 48 72 20 22 115 165 135 205 7 14 22 39 32 55
11 17 20 42 20 56 1 15 14 41 30 58 33 35 71 111 71 141 0 20 -24 28 -34 11z"/>
<path d="M5920 6686 c0 -7 7 -19 15 -26 8 -7 26 -37 41 -69 14 -31 30 -63 35
-71 39 -62 52 -80 59 -80 4 0 13 -20 20 -45 7 -25 16 -48 21 -51 11 -7 25 24
32 71 5 32 2 46 -18 75 -28 39 -189 210 -199 210 -3 0 -6 -6 -6 -14z"/>
<path d="M6480 6663 c0 -4 5 -15 10 -23 8 -13 10 -13 10 2 0 9 -4 20 -10 23
-5 3 -10 3 -10 -2z"/>
<path d="M5512 6420 c0 -14 2 -19 5 -12 2 6 2 18 0 25 -3 6 -5 1 -5 -13z"/>
<path d="M4637 6143 c-11 -10 -8 -43 3 -43 6 0 10 11 10 25 0 26 -2 29 -13 18z"/>
<path d="M5344 6095 c-8 -33 -66 -45 -105 -23 -25 15 -28 14 -45 -8 -18 -21
-28 -23 -127 -26 -81 -2 -110 0 -116 10 -10 16 -63 12 -68 -5 -3 -7 8 -15 24
-19 15 -3 55 -14 89 -25 69 -22 197 -25 229 -5 11 7 37 13 57 14 21 1 57 12
80 24 24 13 44 24 46 24 1 1 -5 15 -15 33 -22 37 -40 40 -49 6z"/>
<path d="M4780 6070 c14 -11 39 -19 55 -18 29 1 29 1 3 5 -14 2 -32 11 -38 19
-7 8 -20 14 -29 14 -12 0 -10 -5 9 -20z"/>
<path d="M4946 5903 c-7 -8 5 -34 26 -55 17 -17 18 -17 18 16 0 25 -5 35 -19
39 -11 3 -22 3 -25 0z"/>
<path d="M5488 5551 c-48 -48 -59 -76 -35 -84 6 -2 12 -19 12 -38 0 -29 4 -34
27 -37 53 -6 107 119 76 177 -7 14 -17 26 -23 27 -5 2 -31 -18 -57 -45z"/>
<path d="M4975 5220 c3 -5 19 -10 36 -10 16 0 29 5 29 10 0 6 -16 10 -36 10
-21 0 -33 -4 -29 -10z"/>
<path d="M4718 5163 c-34 -14 -53 -43 -28 -43 6 0 10 5 10 10 0 6 6 10 13 10
14 1 52 28 46 34 -2 2 -21 -3 -41 -11z"/>
<path d="M5601 4544 c0 -11 3 -14 6 -6 3 7 2 16 -1 19 -3 4 -6 -2 -5 -13z"/>
<path d="M5621 4481 c-16 -11 -9 -52 14 -75 14 -13 18 -12 41 11 l26 26 -29
23 c-32 27 -33 27 -52 15z"/>
<path d="M5920 4463 c1 -11 26 -43 34 -43 15 0 4 30 -14 40 -11 6 -20 7 -20 3z"/>
<path d="M5715 4370 c-3 -5 -1 -10 4 -10 6 0 11 5 11 10 0 6 -2 10 -4 10 -3 0
-8 -4 -11 -10z"/>
<path d="M5660 4361 c0 -6 5 -13 10 -16 6 -3 10 1 10 9 0 9 -4 16 -10 16 -5 0
-10 -4 -10 -9z"/>
<path d="M5929 4334 c-12 -14 -11 -16 5 -13 11 2 21 10 24 17 5 17 -13 15 -29
-4z"/>
<path d="M5710 4292 c0 -5 6 -16 13 -27 10 -13 16 -15 21 -6 4 6 2 18 -4 26
-13 16 -30 20 -30 7z"/>
<path d="M5760 4250 c0 -5 5 -10 11 -10 5 0 7 5 4 10 -3 6 -8 10 -11 10 -2 0
-4 -4 -4 -10z"/>
<path d="M5790 4145 c0 -20 59 -50 73 -36 7 7 3 16 -14 30 -28 24 -59 27 -59
6z"/>
<path d="M5880 3935 c0 -8 9 -15 20 -15 24 0 27 15 4 24 -22 9 -24 8 -24 -9z"/>
<path d="M5840 3801 c0 -20 27 -48 36 -38 9 9 -6 45 -21 51 -10 3 -15 -1 -15
-13z"/>
<path d="M6271 1904 c-7 -8 -11 -17 -9 -20 3 -2 13 5 23 16 10 11 14 20 9 20
-5 -1 -15 -8 -23 -16z"/>
<path d="M5765 8000 c-3 -5 3 -10 14 -10 12 0 21 5 21 10 0 6 -6 10 -14 10 -8
0 -18 -4 -21 -10z"/>
<path d="M5580 7910 c0 -5 9 -10 21 -10 11 0 17 5 14 10 -3 6 -13 10 -21 10
-8 0 -14 -4 -14 -10z"/>
<path d="M8872 1830 c0 -14 2 -19 5 -12 2 6 2 18 0 25 -3 6 -5 1 -5 -13z"/>
<path d="M8836 1712 c-7 -12 5 -52 15 -52 5 0 9 14 9 30 0 28 -13 40 -24 22z"/>
<path d="M8821 1539 c-1 -9 -8 -19 -16 -23 -9 -3 -15 -17 -14 -33 1 -21 3 -23
6 -8 3 11 12 28 20 37 8 9 13 23 10 30 -4 9 -6 8 -6 -3z"/>
</g>
</svg>
